# xmcd
#
# Track frame offsets:
#	150
#	16473
#	33275
#	46211
#	60113
#	76696
#	91136
#	102832
#	118083
#	129193
#	140900
#	155953
#	169496
#	182324
#	191163
#	206175
#	217967
#	253203
#
# Disc length: 4440
#
# Revision: 2
# Processed by: cddbd v1.5.1PL0 Copyright (c) Steve Scherf et al.
# Submitted via: EasyCDDAExtractor 7.0.5.4
# Normalized: r1:DSETVAR1
#
DISCID=f8115612
DTITLE=Various Artist - Lady Sings The Blues 2 - CD Two
DYEAR=1900
DGENRE=Blues
TTITLE0=Nina Simone - My Baby Just Cares For Me
TTITLE1=Gladys Night and The Pips - You're The Best Thing That Ever Happened To Me
TTITLE2=Bobbie Gentry - I'll Never Fall In Love Again
TTITLE3=Billie Holiday - The Way You Look Tonight
TTITLE4=Aretha Franklin - Unforgettable
TTITLE5=Sarah Vaughan - All Or Nothing
TTITLE6=Maxine Brown - Oh No Not My Baby
TTITLE7=Peggy Scott - Every Little Bit Hurts
TTITLE8=Nancy Wilson - Here's That Rainy Day
TTITLE9=Sue Raney - September In The Rain
TTITLE10=Julie London - The Thrill Is Gone
TTITLE11=Keely Smith - Someone To Watch Over Me
TTITLE12=Kay Starr - I Cry By Night
TTITLE13=Betty Hutton - Hit The Road To Dreamland
TTITLE14=Billie Holiday and The Teddy Wilson Orchestra - Love Me Or Leave Me
TTITLE15=June Christy - Looking For A Boy
TTITLE16=Sarah Vaughan - In A Sentimental Mood
TTITLE17=DATA
EXTD=This is the Second CD of a Two CD Set
EXTT0=
EXTT1=
EXTT2=
EXTT3=
EXTT4=
EXTT5=
EXTT6=
EXTT7=
EXTT8=
EXTT9=
EXTT10=
EXTT11=
EXTT12=
EXTT13=
EXTT14=
EXTT15=
EXTT16=
EXTT17=
PLAYORDER=
